<?xml version="1.0" encoding="utf-8"?>
<!-- Generator: Adobe Illustrator 17.1.0, SVG Export Plug-In . SVG Version: 6.00 Build 0)  -->
<!DOCTYPE svg PUBLIC "-//W3C//DTD SVG 1.1//EN" "http://www.w3.org/Graphics/SVG/1.1/DTD/svg11.dtd">
<svg version="1.1" id="Capa_1" xmlns="http://www.w3.org/2000/svg" xmlns:xlink="http://www.w3.org/1999/xlink" x="0px" y="0px"
	 viewBox="0 0 200 200" enable-background="new 0 0 200 200" xml:space="preserve">
<g>
	<path fill="#329865" d="M168.9,104.4c-8.3-9.4-18.9-17.1-27.7-26.2c-10.8-11.2-20.9-23.1-31-35c-1.7-2-4.5-1.4-6.3,0
		C87.9,55.6,71.9,68.1,56.8,81.8c-6.6,6-26.1,20.9-23.5,31.5c0,0.1,0.1,0.1,0.1,0.2c-2.3,8,1.6,17.7,3.2,25.7
		c1.1,5.3,2.1,10.5,3.2,15.8c-1-0.7-2.6,0.4-1.8,1.6c0.9,1.2,1.8,2.3,2.8,3.4c1.6,8.5,3.2,17,4.3,25.6c0.3,2.4,1.7,4.3,4.3,4.3
		c6.2,0.1,14.6,1.5,22.5,1.7c0.8,0.5,1.7,0.4,2.3,0c5.2-0.1,10.2-0.8,13.9-3.1c1.6-1,2-3,1.3-4.5c3.5-18.6,3-37.5,2.8-56.3l18.6,0
		c2.1,17.2,1.1,34.7,2.4,51.9c0.1,1.7,1,2.8,2.1,3.5c0.3,1.4,1.1,2.7,2.6,3.2c11.6,4,24.7,0.8,36.5-0.7c2-0.3,3.8-1.2,4.3-3.3
		c6-22.7,9.4-49.2,10.2-72.6C170,108.1,170.2,105.8,168.9,104.4z M52.1,98.3c5.2,6.2,10.7,12.1,16.4,17.9
		c4.6,4.6,9.5,10.3,15.2,13.7c0,2.3,0.1,4.6,0.1,7c-12.2-11-26.5-19.4-37.5-31.7C48.3,102.8,50.2,100.4,52.1,98.3z M53.1,181.1
		c-0.5-3.2-1-6.3-1.5-9.5c0.5,0.5,0.9,0.9,1.4,1.4c2.5,2.5,5,5.2,7.5,7.8C58,180.9,55.5,181,53.1,181.1z M67,180.6
		c-3.2-2.9-6.5-5.7-9.6-8.5c-2.4-2.2-4.7-4.5-6.9-6.7c-1-5.3-2.1-10.6-3.3-15.9c2.7,3.4,5.5,6.8,8.4,10.2c5.9,6.8,12.3,14.8,19.4,21
		C72.4,180.5,69.7,180.5,67,180.6z M83.6,180.7c-12.1-12.7-25.9-23.9-37.7-37c-0.2-0.7-0.3-1.4-0.5-2c-1.2-5.1-2.1-11.4-3.8-17.2
		c5.6,6.7,11.5,13.1,17.4,19.5c6.9,7.6,14.4,18.8,23.3,24.1c0.5,0.3,1.1,0.3,1.6,0.2C83.9,172.4,83.8,176.5,83.6,180.7z M63.8,143.6
		c-8.6-8.4-16.8-17.2-24.8-26.1c-0.7-1.4-1.5-2.8-2.5-3.9c2.6-1.3,5.2-3.6,7.7-6.2c10.5,14.1,26.5,23.1,39,35.3
		c0.2,0.2,0.4,0.3,0.6,0.4c0.1,6.7,0.2,13.4,0.1,20.1C78.9,155.9,70.1,149.7,63.8,143.6z M83.6,123.3c0,0.2,0,0.4,0,0.6
		c-4.1-3.5-8.7-6.7-12.6-10.2c-6.1-5.4-11.7-11.4-17.2-17.4c0.7-0.8,1.5-1.6,2.2-2.2c0.6-0.5,1.2-1,1.7-1.6
		c5.7,6.8,12.1,12.9,18.6,18.9c2.7,2.5,5.8,5.8,9.1,8.6C84.4,120.7,83.6,121.9,83.6,123.3z M91.4,119c-0.9-0.6-1.8-1.2-2.6-1.8
		c-4.1-2.9-7.8-6.4-11.5-9.8c-6-5.4-11.8-11.2-17.3-17.1c2.2-2,4.4-3.9,6.6-5.8c5.5,7.4,11.9,14.2,18.5,20.6c4,4,9.3,10,14.9,13.8
		C97.2,119,94.3,119,91.4,119z M108.6,119C108.6,119,108.6,118.9,108.6,119c-5.8-6.3-14.4-10.8-20.9-16.5
		C80.8,96.5,74.3,90,68.2,83.2c1.6-1.3,3.2-2.6,4.7-4c10.7,14.3,23.6,27.4,37.3,39.8L108.6,119z M151,176.6c-0.5,2.1-7,2.8-14.1,2.9
		c-0.3-0.2-0.6-0.4-0.9-0.6c-1.9-1.4-3.7-3.1-5.4-4.8c-0.8-0.8-6.8-6.7-6.4-7.4c0.4-0.8-0.7-1.8-1.3-1c-2,2.4,2,6.8,3.4,8.4
		c1.5,1.9,3.2,3.7,5,5.3c-3.6-0.1-7-0.3-9.4-0.5c-0.5-9.8-0.6-19.7-1-29.6c3.2,3.6,6.7,6.9,10.3,10.1c3.3,2.9,6.6,5.9,9.7,8.9
		c2.8,2.8,5,6.1,8.4,8.1c0.6,0.3,1.3,0.2,1.8-0.2C151,176.4,151,176.5,151,176.6z M154,158.9c-0.5-0.3-0.9-0.6-1.3-0.9
		c-3.9-2.7-7.9-5.3-11.8-8c-4.3-3-8.5-5.9-12.6-9.2c-1.5-1.2-4.6-3-5.5-4.7c-0.5-1-2.2-0.3-1.8,0.8c2.3,6,9.1,10.1,14,13.9
		c4,3.1,8.1,6.1,12.2,9.1c1.7,1.2,3.8,3.4,6,4.5c-0.5,3.4-1.1,6.7-1.8,10c-2.3-6.8-10.5-11.9-15.9-16.3c-5.3-4.3-10.4-8.6-15-13.5
		c-0.3-5.9-0.6-11.7-1.3-17.5c11.6,10,23.6,19.7,35,29.1c0.1,0,0.1,0.1,0.2,0.1C154.3,157.1,154.1,158,154,158.9z M155.7,146.6
		c-0.2,1.2-0.3,2.3-0.5,3.5c-25.4-25.7-55.6-45.9-80.3-72.7c2-1.7,4.1-3.3,6.1-4.9c20.4,26.3,51.3,43.5,75.5,66
		C156.2,141.4,156,144.1,155.7,146.6z M157.2,132.9c-9.7-10.9-21.9-19.5-33.6-28.1c-7.7-5.7-15.4-11.3-22.8-17.4
		c-3.8-3.1-7.3-6.5-10.9-9.9c-1.3-1.3-9.8-6.7-3.6-5.7c0.4,0.1,0.6-0.5,0.2-0.7c-0.8-0.4-1.5-0.8-2.3-1.2c3.8-3,7.5-6.1,11.3-9.1
		c7.2-5.6,8.7-11.2,14.6-4.2c6.9,8.1,13.9,16.1,21,24c9.5,10.4,20.3,23.9,33.6,29.6c-2,2.6-3.4,5.6-4.5,8.8
		c-9.1-9.3-20.5-17.4-29.8-25.9c-7-6.4-13.9-12.9-20.9-19.3c-3.8-3.5-7.5-8.4-12.5-10.1c-0.3-0.1-0.7,0.2-0.5,0.5
		c3.7,10.9,19.7,21.8,27.8,29.6c10.4,10.2,21.6,23.9,34,32.5C157.8,128.5,157.4,130.7,157.2,132.9z"/>
	<path fill="#329865" d="M171.2,76.6c0.4-0.6,0.7-1.3,0.7-2.2c0.1-1.8,0.2-3.7,0.4-5.7c1.4-0.2,2.5-1.8,1.2-3.1
		c-0.2-0.2-0.5-0.5-0.7-0.7c2-16.8,6-35.1-2.6-50c-6.9-12-25.4-6.6-36.1-5.1c-1.7,0.2-3,2.3-2.9,3.9c0.4,8.6,0.3,17.1,0.1,25.6
		c-8.5-8.1-16.9-16.2-25.3-24.5c-2-2-4.6-1.6-6.7,0C65.2,41.6,32.8,72.5,8.1,108.3c-2.2,3.1,2.8,6.9,5.3,4.1
		C41.2,81,69.7,50.7,102.4,24.5c13.7,13.5,27.7,26.6,41.4,39.9c9.1,8.8,18.2,17.7,27.1,26.7c3.3,3.4,11.7,10.6,13,13.3
		c1.6,3.1,5.7,1.8,6.8-0.9C193.1,97.1,181.4,85.5,171.2,76.6z M165,24.1c0.6,1.9,1,3.7,1.4,5.6c-1.5-1.1-3-2.1-4.4-3.2
		c-4.2-3.4-8.4-6.9-12.4-10.6C156.4,15.5,162.6,16.8,165,24.1z M163.8,70.2c-2.4-2-4.2-3.6-5.3-4.6c-7.2-7-14.5-14-21.7-21
		c0.3-1.9,0.6-3.8,0.8-5.7c9.5,7.5,17.9,16.1,27,24C164.3,65.4,164,67.8,163.8,70.2z M165.2,58c-8.6-7.7-17.8-15.2-27.4-21.4
		c0.2-2.3,0.4-4.6,0.6-6.9c4.1,5.2,8.9,9.8,13.5,14.4c3.8,3.8,8.4,9.5,13.6,12C165.4,56.7,165.3,57.3,165.2,58z M140,18.5
		c1.8,5.7,7.6,10.1,11.8,14.1c3.5,3.3,7,6.5,10.6,9.7c1.2,1.1,2.7,2.7,4.3,4c-0.2,1.7-0.3,3.4-0.6,5.1c-9.5-8.2-20-16.1-27.4-26.3
		c0.1-2.7,0.3-5.3,0.4-8c2.7-0.4,5.5-0.9,8.4-1.2c-0.3,0.5-0.4,1.1,0.1,1.7c3.7,4,7.7,7.7,11.8,11.4c2.4,2.2,4.9,4.9,7.7,6.8
		c0.1,1.4,0.1,2.9,0,4.4c-0.1-0.1-0.3-0.2-0.4-0.3c-3.3-2.7-6.6-5.4-9.8-8.2c-4.5-3.9-11.8-8.8-14.6-14.1
		C141.6,16.4,139.6,17.3,140,18.5z"/>
</g>
</svg>
