<?xml version="1.0" encoding="utf-8"?>
<!-- Generator: Adobe Illustrator 17.0.0, SVG Export Plug-In . SVG Version: 6.00 Build 0)  -->
<!DOCTYPE svg PUBLIC "-//W3C//DTD SVG 1.1//EN" "http://www.w3.org/Graphics/SVG/1.1/DTD/svg11.dtd">
<svg version="1.1" id="Capa_1" xmlns="http://www.w3.org/2000/svg" xmlns:xlink="http://www.w3.org/1999/xlink" x="0px" y="0px"
	 width="200px" height="200px" viewBox="0 0 200 200" enable-background="new 0 0 200 200" xml:space="preserve">
<g>
	<path d="M184.795,76.983c-0.832-1.254-2.632-1.802-4.066-1.421c-2.534-9.255-15.59-19.51-20.686-24.465
		c-14.273-13.882-30.021-26.905-46.917-37.482C74.071-10.835,41.564,48.267,12.992,66.072c-2.39,1.49-1.759,4.118,0.005,5.239
		c0.044,0.609,0.09,1.217,0.139,1.825c0.002,0.152,0.004,0.299,0.035,0.453c2.855,36.99-7.745,77.139,1.934,112.962
		c0.789,2.919,4.482,3.357,6.398,1.787c0.216,0.11,0.408,0.246,0.672,0.303c25.214,5.519,51.129,5.769,76.829,5.617
		c25.844-0.153,53.044,1.611,78.709-0.789c2.039-0.19,3.388-1.928,3.617-3.675c0.322,0.331,0.61,0.698,0.961,1.001
		c0.806,0.696,2.196,0.497,2.477-0.654c1.933-7.92-0.748-16.642-1.015-24.801c-0.357-10.892,0.768-21.888,1.764-32.719
		C186.921,117.334,193.929,90.755,184.795,76.983z M171.881,78.292c-0.758,0.178-1.518,0.439-2.278,0.748
		c-1.095-0.827-2.178-1.649-3.133-2.5c-3.345-2.979-6.546-6.114-9.897-9.085c-0.896-0.794-1.934-0.612-2.594-0.013
		c-0.419-3.49-0.841-6.99-1.341-10.481C159.288,63.827,165.639,71.006,171.881,78.292z M164.87,81.65
		c-3.149,2.126-6.09,4.787-8.398,6.937c-0.01-5.263-1.217-10.884-1.832-15.73c-0.089-0.7-0.171-1.41-0.257-2.113
		c2.816,3.14,5.759,6.158,8.759,9.124C163.7,80.422,164.279,81.029,164.87,81.65z M146.998,72.857
		c0.392,7.152-0.115,15.387,2.101,22.178c0.05,0.151,0.142,0.262,0.206,0.399c-11.112,11.106-21.123,23.412-33.155,33.524
		c-1.676-0.213-2.994,1.111-3.256,2.652c-0.349,0.272-0.675,0.569-1.027,0.837c-17.309,13.154-38.197-7.923-51.118-18.954
		c-2.409-2.057-4.728-4.196-7.067-6.317c-0.232-15.187-7.845-56.644,9.086-58.711c28.234-3.446,55.005,0.075,82.986,3.045
		C145.939,58.628,146.61,65.772,146.998,72.857z M108.702,21.184c10.032,5.954,19.199,12.841,27.783,20.349
		c-4.586-0.827-9.226-1.414-13.877-1.906c-11.797-7.654-24.382-13.691-35.902-21.774C93.828,16.037,101.144,16.699,108.702,21.184z
		 M82.49,19.214c7.788,7.076,16.523,13.59,25.582,19.302c-4.047-0.187-8.091-0.317-12.111-0.351c-3.135-2.226-7.132-3.95-10.06-5.98
		c-3.986-2.764-7.782-5.81-11.599-8.815C77.005,21.698,79.733,20.289,82.49,19.214z M71.725,25.044
		c4.329,3.865,8.715,7.657,13.219,11.321c0.628,0.511,1.283,1.067,1.951,1.631c-2.756-0.071-5.791-0.144-8.943-0.131
		c-1.627-0.789-3.587-1.315-4.82-1.914c-3.053-1.484-6.039-3.244-8.657-5.425C66.872,28.541,69.289,26.703,71.725,25.044z
		 M62.014,32.611c2.289,2.151,4.872,3.949,7.568,5.558c-6.259,0.474-12.125,1.604-15.873,4.123
		c-7.314,4.915-9.667,14.814-9.82,25.82c-0.731-0.492-1.441-1.016-2.125-1.567c-2.234-1.8-4.376-3.838-6.136-6.109
		c-1.343-1.733-4.103,0.498-2.993,2.309c1.805,2.945,4.285,5.409,6.882,7.66c1.167,1.012,2.762,2.593,4.454,3.121
		c0.126,2.882,0.364,5.794,0.675,8.675c-3.81-1.17-7.714-4.538-10.465-6.689c-3.423-2.675-6.611-5.641-9.763-8.639
		C36.655,58.412,49.077,43.843,62.014,32.611z M19.676,72.758c-0.182-0.876-0.358-1.753-0.546-2.628
		c1.004-0.535,2.008-1.134,3.014-1.766c4.123,4.25,8.331,8.428,12.854,12.249c2.726,2.303,6.329,5.448,10.116,5.543
		c0.708,5.477,1.595,10.723,2.338,15.264C37.81,92.252,28.642,82.632,19.676,72.758z M22.053,176.345
		c-1.41-29.791,3.095-60.586-0.241-90.151c8.915,11.116,19.762,21.181,29.87,30.607c6.602,6.156,14.313,13.269,22.712,19.002
		c-9.284,2.277-18.301,11.26-25.393,17.109C39.86,160.45,30.864,168.347,22.053,176.345z M104.901,185.214
		c-26.894,0.479-53.565-0.389-80.343-2.797c7.667-5.447,14.885-11.669,22.239-17.435c10.234-8.024,21.28-14.861,31.567-22.614
		c1.103-0.831,1.592-1.931,1.669-3.011c5.931,3.417,12.14,5.956,18.508,6.833c7.384,1.017,14.48-2.717,20.823-7.744
		c9.319,6.728,18.374,13.834,27.289,21.078c5.856,4.759,24.377,16.494,25.018,24.597c0.028,0.342,0.106,0.66,0.212,0.962
		C150.138,182.103,126.524,184.829,104.901,185.214z M176.158,137.372c-0.83,9.172-3.194,24.647-1.303,37.229
		c-10.221-13.02-36.908-31.856-50.279-40.667c3.588-3.357,6.847-6.836,9.654-9.66c9.761-9.814,23.524-31.007,38.256-36.495
		c0.129,0.053,0.253,0.124,0.383,0.17c1.028,0.363,2.039-0.202,2.585-1.05c0.751-0.165,1.503-0.337,2.257-0.408
		c0.241-0.022,0.465-0.099,0.693-0.164c0.202,4.812,0.825,9.664,0.728,14.488C178.886,113.023,177.258,125.227,176.158,137.372z"/>
	<path d="M125.201,82.337c-11.261-3.901-28.224-0.445-40.035-0.257c-1.973,0.031-27.092-1.126-24.147,4.419
		c3.006,5.662,24.378,2.802,29.697,2.887c10.269,0.163,24.679,3.051,34.485-0.346C128.508,87.894,128.508,83.483,125.201,82.337z"/>
	<path d="M95.437,65.312c-2.549-3.214-8.247-2.276-11.837-2.302c-6.492-0.049-13.339-0.368-19.789,0.399
		c-3.336,0.396-3.335,4.791,0,5.187c5.556,0.661,11.282,0.374,16.874,0.74c4.428,0.291,9.066,1.608,13.443,0.93
		C96.584,69.886,96.645,66.835,95.437,65.312z"/>
</g>
</svg>
