<?xml version="1.0" encoding="utf-8"?>
<!-- Generator: Adobe Illustrator 17.1.0, SVG Export Plug-In . SVG Version: 6.00 Build 0)  -->
<!DOCTYPE svg PUBLIC "-//W3C//DTD SVG 1.1//EN" "http://www.w3.org/Graphics/SVG/1.1/DTD/svg11.dtd">
<svg version="1.1" id="Capa_1" xmlns="http://www.w3.org/2000/svg" xmlns:xlink="http://www.w3.org/1999/xlink" x="0px" y="0px"
	 viewBox="0 0 200 200" enable-background="new 0 0 200 200" xml:space="preserve">
<g>
	<path fill="#329865" d="M184.8,77c-0.8-1.3-2.6-1.8-4.1-1.4c-2.5-9.3-15.6-19.5-20.7-24.5c-14.3-13.9-30-26.9-46.9-37.5
		C74.1-10.8,41.6,48.3,13,66.1c-2.4,1.5-1.8,4.1,0,5.2c0,0.6,0.1,1.2,0.1,1.8c0,0.2,0,0.3,0,0.5c2.9,37-7.7,77.1,1.9,113
		c0.8,2.9,4.5,3.4,6.4,1.8c0.2,0.1,0.4,0.2,0.7,0.3c25.2,5.5,51.1,5.8,76.8,5.6c25.8-0.2,53,1.6,78.7-0.8c2-0.2,3.4-1.9,3.6-3.7
		c0.3,0.3,0.6,0.7,1,1c0.8,0.7,2.2,0.5,2.5-0.7c1.9-7.9-0.7-16.6-1-24.8c-0.4-10.9,0.8-21.9,1.8-32.7
		C186.9,117.3,193.9,90.8,184.8,77z M171.9,78.3c-0.8,0.2-1.5,0.4-2.3,0.7c-1.1-0.8-2.2-1.6-3.1-2.5c-3.3-3-6.5-6.1-9.9-9.1
		c-0.9-0.8-1.9-0.6-2.6,0c-0.4-3.5-0.8-7-1.3-10.5C159.3,63.8,165.6,71,171.9,78.3z M164.9,81.7c-3.1,2.1-6.1,4.8-8.4,6.9
		c0-5.3-1.2-10.9-1.8-15.7c-0.1-0.7-0.2-1.4-0.3-2.1c2.8,3.1,5.8,6.2,8.8,9.1C163.7,80.4,164.3,81,164.9,81.7z M147,72.9
		c0.4,7.2-0.1,15.4,2.1,22.2c0.1,0.2,0.1,0.3,0.2,0.4c-11.1,11.1-21.1,23.4-33.2,33.5c-1.7-0.2-3,1.1-3.3,2.7
		c-0.3,0.3-0.7,0.6-1,0.8c-17.3,13.2-38.2-7.9-51.1-19c-2.4-2.1-4.7-4.2-7.1-6.3c-0.2-15.2-7.8-56.6,9.1-58.7c28.2-3.4,55,0.1,83,3
		C145.9,58.6,146.6,65.8,147,72.9z M108.7,21.2c10,6,19.2,12.8,27.8,20.3c-4.6-0.8-9.2-1.4-13.9-1.9C110.8,32,98.2,25.9,86.7,17.9
		C93.8,16,101.1,16.7,108.7,21.2z M82.5,19.2c7.8,7.1,16.5,13.6,25.6,19.3c-4-0.2-8.1-0.3-12.1-0.4c-3.1-2.2-7.1-4-10.1-6
		c-4-2.8-7.8-5.8-11.6-8.8C77,21.7,79.7,20.3,82.5,19.2z M71.7,25c4.3,3.9,8.7,7.7,13.2,11.3c0.6,0.5,1.3,1.1,2,1.6
		c-2.8-0.1-5.8-0.1-8.9-0.1c-1.6-0.8-3.6-1.3-4.8-1.9c-3.1-1.5-6-3.2-8.7-5.4C66.9,28.5,69.3,26.7,71.7,25z M62,32.6
		c2.3,2.2,4.9,3.9,7.6,5.6c-6.3,0.5-12.1,1.6-15.9,4.1c-7.3,4.9-9.7,14.8-9.8,25.8c-0.7-0.5-1.4-1-2.1-1.6c-2.2-1.8-4.4-3.8-6.1-6.1
		c-1.3-1.7-4.1,0.5-3,2.3c1.8,2.9,4.3,5.4,6.9,7.7c1.2,1,2.8,2.6,4.5,3.1c0.1,2.9,0.4,5.8,0.7,8.7c-3.8-1.2-7.7-4.5-10.5-6.7
		c-3.4-2.7-6.6-5.6-9.8-8.6C36.7,58.4,49.1,43.8,62,32.6z M19.7,72.8c-0.2-0.9-0.4-1.8-0.5-2.6c1-0.5,2-1.1,3-1.8
		c4.1,4.3,8.3,8.4,12.9,12.2c2.7,2.3,6.3,5.4,10.1,5.5c0.7,5.5,1.6,10.7,2.3,15.3C37.8,92.3,28.6,82.6,19.7,72.8z M22.1,176.3
		c-1.4-29.8,3.1-60.6-0.2-90.2c8.9,11.1,19.8,21.2,29.9,30.6c6.6,6.2,14.3,13.3,22.7,19c-9.3,2.3-18.3,11.3-25.4,17.1
		C39.9,160.4,30.9,168.3,22.1,176.3z M104.9,185.2c-26.9,0.5-53.6-0.4-80.3-2.8c7.7-5.4,14.9-11.7,22.2-17.4
		c10.2-8,21.3-14.9,31.6-22.6c1.1-0.8,1.6-1.9,1.7-3c5.9,3.4,12.1,6,18.5,6.8c7.4,1,14.5-2.7,20.8-7.7c9.3,6.7,18.4,13.8,27.3,21.1
		c5.9,4.8,24.4,16.5,25,24.6c0,0.3,0.1,0.7,0.2,1C150.1,182.1,126.5,184.8,104.9,185.2z M176.2,137.4c-0.8,9.2-3.2,24.6-1.3,37.2
		c-10.2-13-36.9-31.9-50.3-40.7c3.6-3.4,6.8-6.8,9.7-9.7c9.8-9.8,23.5-31,38.3-36.5c0.1,0.1,0.3,0.1,0.4,0.2c1,0.4,2-0.2,2.6-1.1
		c0.8-0.2,1.5-0.3,2.3-0.4c0.2,0,0.5-0.1,0.7-0.2c0.2,4.8,0.8,9.7,0.7,14.5C178.9,113,177.3,125.2,176.2,137.4z"/>
	<path fill="#329865" d="M125.2,82.3c-11.3-3.9-28.2-0.4-40-0.3c-2,0-27.1-1.1-24.1,4.4c3,5.7,24.4,2.8,29.7,2.9
		c10.3,0.2,24.7,3.1,34.5-0.3C128.5,87.9,128.5,83.5,125.2,82.3z"/>
	<path fill="#329865" d="M95.4,65.3c-2.5-3.2-8.2-2.3-11.8-2.3c-6.5,0-13.3-0.4-19.8,0.4c-3.3,0.4-3.3,4.8,0,5.2
		c5.6,0.7,11.3,0.4,16.9,0.7c4.4,0.3,9.1,1.6,13.4,0.9C96.6,69.9,96.6,66.8,95.4,65.3z"/>
</g>
</svg>
