<?xml version="1.0" encoding="utf-8"?>
<!-- Generator: Adobe Illustrator 17.0.0, SVG Export Plug-In . SVG Version: 6.00 Build 0)  -->
<!DOCTYPE svg PUBLIC "-//W3C//DTD SVG 1.1//EN" "http://www.w3.org/Graphics/SVG/1.1/DTD/svg11.dtd">
<svg version="1.1" id="Capa_1" xmlns="http://www.w3.org/2000/svg" xmlns:xlink="http://www.w3.org/1999/xlink" x="0px" y="0px"
	 width="200px" height="200px" viewBox="0 0 200 200" enable-background="new 0 0 200 200" xml:space="preserve">
<path d="M167.044,45.736c-0.607-11.241-0.876-28.009-10.819-35.468c-1.241-0.932-2.588-0.845-3.706-0.222
	c-4.772-5.421-17.467-4.929-23.969-5.576c-16.169-1.61-32.524-1.849-48.748-1.166c-5.479,0.231-43.436,1.644-43.799,13.66
	c-0.208,0.185-0.398,0.405-0.538,0.705c-1.933,4.147-0.906,9.112-0.859,13.592c0.107,10.184,0.224,20.365,0.239,30.551
	c0.023,15.589-0.367,30.918-1.51,46.468c-1.294,17.616-2.644,35.259-2.523,52.934c0.032,4.682-0.617,15.31,2.422,21.465
	c-0.081,0.472-0.083,0.96,0.036,1.41c2.738,10.419,21.578,9.773,29.849,10.335c27.884,1.894,56.722,0.489,84.497-2.182
	c0.75-0.072,1.377-0.318,1.91-0.663c1.039,0.352,2.234,0.283,3.256-0.185c10.595-4.858,9.787-28.127,10.635-37.549
	c1.279-14.213,1.873-28.403,2.63-42.655C167.206,89.404,168.221,67.542,167.044,45.736z M149.056,60.553
	c0.022-4.582-0.011-9.165-0.163-13.749c3.15,3.348,6.211,6.779,9.049,10.416c0.365,0.468,0.832,0.666,1.308,0.671
	c-0.032,1.704-0.054,3.296-0.039,4.702c0.022,2.098-0.005,4.196-0.018,6.295c-1.114-0.611-2.242-1.2-3.266-1.881
	C153.316,65.267,151.062,62.962,149.056,60.553z M150.24,15.789c0.115-0.004,0.21-0.043,0.32-0.057
	c0.188,0.325,0.418,0.639,0.74,0.919c4.453,3.872,6.507,10.717,7.417,18.219c-2.429-2.567-5.531-4.826-7.752-7
	c-4.362-4.269-8.873-8.684-12.658-13.577C142.355,15.139,146.424,15.932,150.24,15.789z M128.551,12.588
	c2.066,0.186,4.208,0.573,6.376,1.01c3.265,5.131,7.354,9.797,11.356,14.3c3.511,3.949,7.879,10.247,12.922,12.76
	c0.209,3.915,0.21,7.848,0.153,11.495c-11.009-15.213-27.054-25.969-39.254-40.199C122.922,12.143,125.739,12.334,128.551,12.588z
	 M116.1,11.691c0.034,0.067,0.041,0.137,0.09,0.203c7.929,10.688,17.73,19.701,27.103,29.122c-0.798-0.069-1.594-0.065-2.345,0.071
	c-0.096-0.782-0.495-1.543-1.199-2.014c-2.436-1.63-5.443-2.49-8.71-2.891c-4.929-5.086-9.872-10.156-14.878-15.163
	c-0.851-1.333-2.039-2.453-3.42-3.37c-2.177-2.151-4.367-4.289-6.574-6.409C109.479,11.341,112.79,11.503,116.1,11.691z
	 M105.927,33.172c0.862-0.088,1.76-0.212,2.659-0.38c-0.305,0.431-0.368,1.026,0.116,1.541c0.946,1.007,1.966,1.923,3.005,2.821
	c-2.272,0.3-4.458,0.585-6.363,0.757c-1.48,0.133-2.95,0.248-4.428,0.38c-2.847-2.463-5.683-4.905-8.478-7.369
	C96.333,33.226,102.14,33.562,105.927,33.172z M93.458,24.091c-0.243-2.573,2.349-3.895,5.063-4.513
	c0.178,0.049,0.366,0.08,0.574,0.059c4.738-0.468,9.468-0.689,13.056,3.045c3.649,3.799-3.69,5.251-6.224,5.531
	C102.727,28.566,93.903,28.798,93.458,24.091z M110.471,32.564c-0.075-0.068-0.156-0.095-0.234-0.141
	c2.435-0.654,4.732-1.785,6.203-3.842c0.255-0.356,0.445-0.724,0.608-1.096c2.582,2.852,5.219,5.655,7.896,8.419
	c-3.113,0.066-6.288,0.393-9.349,0.764C113.857,35.338,112.101,34.024,110.471,32.564z M102.451,11.147
	c1.188,1.327,2.39,2.643,3.571,3.977c-1.438-0.204-2.887-0.227-4.267-0.045c0.019-0.343-0.052-0.686-0.371-0.967
	c-0.697-0.613-1.428-0.831-2.267-1.188c-0.917-0.39-1.747-0.976-2.493-1.629c-0.083-0.072-0.149-0.16-0.228-0.236
	C98.414,11.064,100.433,11.106,102.451,11.147z M92.94,11.005c0.485,0.799,1.04,1.56,1.707,2.266
	c0.722,0.764,1.75,1.654,2.861,2.305c-1.594,0.075-3.17,0.422-4.713,1.179c-1.312,0.643-2.362,1.625-3.12,2.795
	c-0.381-0.236-0.789-0.453-1.21-0.695c-1.501-0.862-2.916-1.874-4.299-2.912c-0.954-0.716-1.908-1.438-2.844-2.177
	c-0.517-0.409-0.793-0.314-1.211-0.675c-0.949-0.818-2.2,0.425-1.373,1.373c0.366,0.42,0.251,0.664,0.721,1.166
	c0.903,0.964,1.826,1.889,2.824,2.754c1.507,1.307,3.938,3.812,6.231,4.382c-0.052,0.338-0.154,0.664-0.165,1.011
	c-0.061,1.919,0.476,3.46,1.379,4.719c-5.961-5.385-11.608-11.051-16.541-17.595C81.117,10.676,88.519,10.907,92.94,11.005z
	 M70.611,10.99c6.202,10.476,14.777,20,24.316,27.813c-1.939,0.164-3.886,0.35-5.824,0.499
	c-9.622-8.321-18.578-16.681-25.648-27.468c-0.102-0.156-0.222-0.27-0.347-0.362C65.575,11.248,68.103,11.094,70.611,10.99z
	 M61.518,11.631c-0.352,0.345-0.52,0.878-0.222,1.466c5.246,10.367,13.773,18.783,22.383,26.594
	c-2.176,0.139-4.352,0.264-6.53,0.359c-1.525-1.092-3.232-2.012-4.676-3.183c-2.574-2.088-4.795-4.622-6.993-7.09
	c-4.774-5.361-9.027-11.157-13.775-16.542C54.659,12.508,58.014,11.998,61.518,11.631z M49.438,13.84
	c0.001,0.268,0.07,0.544,0.274,0.798c4.961,6.169,9.617,12.572,14.789,18.574c1.687,1.959,3.921,4.74,6.428,6.995
	c-1.817,0.031-3.63,0.097-5.451,0.078c-1.555-1.868-3.576-3.516-5.234-5.188c-2.878-2.903-5.724-5.838-8.601-8.742
	c-3.038-3.067-5.916-6.27-9.342-8.807C43.888,15.98,46.391,14.777,49.438,13.84z M41.213,18.933c2.087,3.167,4.744,5.925,7.33,8.806
	c2.742,3.056,5.521,6.079,8.305,9.097c0.936,1.014,1.882,2.161,2.86,3.285c-0.423-0.019-0.844-0.021-1.267-0.044
	c-1.36-0.072-2.191,0.915-2.415,2.033c-0.624-2.554-4.098-3.261-5.365-0.96c-0.284-0.189-0.564-0.384-0.839-0.58
	c-1.875-1.338-3.491-3.121-5.041-4.807c-0.881-0.958-1.748-1.964-2.597-2.994c0.029-4.167,0.287-9.43-1.322-13.226
	C40.958,19.332,41.092,19.135,41.213,18.933z M42.5,53.982c0.653,0.723,1.295,1.455,2.02,2.119c0.972,0.89,2.166,1.861,3.446,2.545
	c-0.12,3.406-0.079,6.845,0.051,10.28c-0.183-0.129-0.391-0.267-0.573-0.387c-0.875-0.576-1.619-1.364-2.334-2.119
	c-0.867-0.916-1.687-1.879-2.493-2.854c-0.003-0.586,0.01-1.168,0.007-1.755C42.607,59.201,42.531,56.593,42.5,53.982z
	 M45.687,53.907c-1.198-1.019-2.249-2.2-3.242-3.427c-0.061-4.291-0.119-8.582-0.203-12.873c1.04,1.264,2.114,2.48,3.189,3.636
	c0.775,0.833,2.505,2.333,4.253,3.27c-0.812,3.591-1.304,7.278-1.555,11.023C47.287,55.056,46.45,54.557,45.687,53.907z
	 M42.472,81.184c1.268,1.068,2.735,2.144,4.167,2.07c0.932-0.049,1.651-1.066,1.108-1.931c-0.968-1.543-3.192-2.296-4.669-3.277
	c-0.175-0.117-0.342-0.248-0.516-0.367c0.045-3.145,0.031-6.304,0.037-9.457c0.802,0.916,1.631,1.806,2.524,2.627
	c0.771,0.708,1.952,1.271,3.019,1.304c0.311,5.988,0.82,11.933,1.138,17.644c0.158,2.831,0.284,5.65,0.419,8.473
	c-2.034-2.678-5.174-6.416-7.469-7.695C42.36,87.443,42.406,84.313,42.472,81.184z M42.317,93.189
	c1.122,1.216,2.08,2.583,3.063,3.91c1.386,1.87,2.588,4.257,4.539,5.603c0.205,4.804,0.372,9.602,0.462,14.398
	c-1.7-1.238-3.667-2.321-5.156-3.553c-1.45-1.2-2.834-2.478-4.2-3.775c0.197-2.672,0.393-5.347,0.587-8.017
	c0.213-2.928,0.371-5.849,0.509-8.768C42.185,93.055,42.253,93.12,42.317,93.189z M40.762,113.382c1.017,0.984,2.04,1.962,3.104,2.9
	c1.833,1.615,4.12,3.812,6.594,4.583c0.036,3.615,0.028,7.23-0.047,10.847c-0.202-0.132-0.4-0.26-0.601-0.4
	c-1.402-0.974-2.633-2.206-3.822-3.421c-2.233-2.282-4.076-4.942-5.729-7.674C40.423,117.937,40.594,115.66,40.762,113.382z
	 M41.645,183.688c-0.16-3.345-0.536-6.667-0.962-9.99c1.195,1.308,2.455,2.444,2.961,2.97c3.11,3.225,6.391,6.723,9.811,9.97
	C48.887,186.21,44.572,185.351,41.645,183.688z M60.064,186.999c-3.172-3.249-7.061-6.081-10.347-8.996
	c-0.668-0.593-7.106-5.799-9.54-8.19c-0.561-4.18-1.098-8.387-1.353-12.666c5.35,5.637,10.757,11.227,16.237,16.725
	c3.953,3.965,8.215,8.919,12.836,13.103C65.567,187.023,62.877,187.059,60.064,186.999z M75.607,186.872
	c-5.553-5.515-12.444-10.364-18.047-15.501c-6.346-5.818-12.578-11.755-18.852-17.647c-0.014-0.796-0.052-1.585-0.038-2.387
	c0.065-3.733,0.205-7.465,0.373-11.195c5.311,10.586,14.525,19.458,22.916,27.487c6.622,6.336,14.503,13.895,22.903,19.198
	C81.778,186.847,78.693,186.862,75.607,186.872z M93.327,186.748c-18.974-15.784-40.8-28.143-53.59-50.263
	c-0.135-0.232-0.306-0.362-0.486-0.45c0.202-3.822,0.474-7.642,0.732-11.461c1.185,1.874,2.518,3.651,3.982,5.344
	c1.624,1.879,3.86,4.335,6.362,5.312c-0.147,4.533-0.389,9.072-0.779,13.623c-0.228,2.664,3.951,3.132,4.59,0.621
	c4.058-15.953,4.314-32.39,3.604-48.763c-0.818-18.838-0.233-38.082-1.508-56.824c0.282,0.572,0.771,1.035,1.53,1.201
	c14.107,3.1,28.87,1.699,43.135,0.534c11.405-0.932,24.968,0.663,36.208-1.429c-0.484,1.348-0.095,2.761,1.172,3.574
	c7.909,5.071,2.149,34.554,1.577,44.008c-0.921,15.218-5.665,34.684-3.929,50.834c-0.713-0.063-1.39,0.93-0.799,1.685
	c0.396,0.507,0.828,0.981,1.234,1.478c0.197,1.168,0.429,2.316,0.709,3.439c-5.847-2.559-12.732-1.641-19.03-1.865
	c-10.651-0.378-21.299-0.813-31.959-0.733c-10.387,0.079-20.904,0.137-30.597,2.28c-0.179,0.013-0.339,0.066-0.485,0.16
	c-0.494,0.218-0.699,0.651-0.657,1.111c-0.041,0.46,0.163,0.893,0.657,1.111c0.142,0.091,0.297,0.142,0.469,0.158
	c2.074,0.459,4.195,0.797,6.334,1.086c5.649,5.992,13.874,13.797,22.222,15.426c-1.535,3.703-0.652,7.86,3.889,10.572
	c2.688,1.605,5.966,2.205,9.228,1.984c1.597,1.344,3.201,2.68,4.777,4.05c0.698,0.607,1.389,1.298,2.083,2.001
	C100.444,186.63,96.887,186.705,93.327,186.748z M86.856,163.568c-0.095,0.169-0.154,0.347-0.194,0.528
	c-0.696,0.675-1.257,1.419-1.749,2.185c-2.88-2.676-6.494-4.406-9.812-6.473c-3.279-2.042-6.366-4.376-9.316-6.869
	c6.084,0.573,12.327,0.715,18.575,0.762c0.088,0.001,0.175,0.004,0.262,0.005c1.545,0.849,3.098,1.687,4.629,2.557
	c1.517,0.862,2.967,1.897,4.447,2.843C90.825,159.713,88.259,161.077,86.856,163.568z M95.085,164.098
	c1.925-0.49,3.98-0.324,5.884,0.156c2.612,0.658,6.114,2.681,5.114,5.817c-0.667,2.094-3.561,3.809-5.433,4.484
	c-2.642,0.953-5.506,1.032-8.212,0.35c-1.865-0.47-4.058-1.694-4.746-3.601c-0.616-1.707,0.111-3.307,1.149-4.714
	c0.101-0.017,0.197-0.014,0.301-0.049C91.197,165.84,92.969,164.637,95.085,164.098z M108.739,186.436
	c-1.364-1.248-2.982-2.321-4.364-3.367c-1.378-1.043-2.791-2.039-4.217-3.018c2.869-0.668,5.568-1.991,7.66-3.895
	c3.078,3.197,6.312,6.234,9.646,9.164c0.24,0.211,0.526,0.487,0.836,0.792C115.114,186.241,111.927,186.348,108.739,186.436z
	 M123.539,185.861c-1.45-1.014-3.076-1.891-4.004-2.612c-3.547-2.753-6.975-5.667-10.258-8.728c0.158-0.2,0.358-0.367,0.504-0.577
	c3.679-5.296,0.627-11.061-4.703-13.6c-2.081-0.991-4.813-1.588-7.568-1.624c-0.057-0.077-0.102-0.156-0.188-0.226
	c-2.048-1.664-4.723-2.738-7.071-3.939c-0.521-0.267-1.056-0.516-1.582-0.777c4.975,0.076,9.948,0.231,14.922,0.38
	c4.802,6.34,10.43,11.962,16.23,17.423c4.71,4.435,9.511,9.381,14.641,13.639C130.822,185.466,127.181,185.684,123.539,185.861z
	 M140.359,184.754c-4.64-5.327-11.152-9.632-16.387-14.082c-6.074-5.162-12.192-10.513-17.593-16.444
	c0.838,0.026,1.675,0.036,2.513,0.064c3.017,0.1,6.477,0.516,10.028,0.849c-0.104,0.368-0.057,0.779,0.285,1.14
	c5.057,5.338,9.275,11.416,13.895,17.123c3.02,3.731,7.324,9.868,12.46,10.914C143.826,184.469,142.092,184.614,140.359,184.754z
	 M148.322,184.148c-0.227-0.014-0.455-0.026-0.705-0.001c-0.088,0.009-0.177,0.013-0.265,0.022c0.644-0.624,0.514-1.966-0.266-2.556
	c-4.8-3.633-8.868-6.882-12.833-11.529c-4.181-4.9-8.047-10.081-12.527-14.717c2.593,0.189,5.186,0.274,7.652,0.112
	c0.016,0.166,0.066,0.339,0.182,0.519c2.813,4.366,5.928,8.472,9.353,12.377c2.679,3.055,6.721,8.553,10.986,9.253
	c0.163,0.026,0.326-0.022,0.489-0.053C149.76,179.82,149.088,182.026,148.322,184.148z M150.98,175.284
	c-2.366-3.043-6.376-5.123-9.113-7.905c-3.692-3.751-6.97-7.931-10.026-12.21c1.643-0.247,3.233-0.589,4.665-1.187
	c0.801-0.334,1.457-1.123,1.749-1.98c0.921,0.743,2.291,0.548,3.166-0.331c1.031,1.143,2.057,2.291,3.103,3.423
	c2.191,2.371,5.58,7.103,8.968,7.905C152.806,167.207,151.994,171.329,150.98,175.284z M153.981,159.754
	c-0.748-0.705-1.637-1.29-2.456-1.948c-1.791-1.436-3.506-2.966-5.205-4.509c-1.337-1.214-2.598-2.513-3.857-3.809
	c1.493-4.078,2.383-8.585,2.979-13.257c1.131,1.059,2.259,2.12,3.396,3.172c1.801,1.668,4.201,4.592,6.737,6.038
	C155.149,150.262,154.66,155.064,153.981,159.754z M155.961,140.999c-2.098-1.718-4.389-3.289-6.416-4.951
	c-1.163-0.954-2.409-2.14-3.703-3.198c0.41-4.342,0.574-8.782,0.696-13.173c1.49,1.007,2.912,2.117,4.296,3.32
	c2.08,1.811,3.904,3.899,5.924,5.766C156.525,132.821,156.273,136.905,155.961,140.999z M157.241,119.999
	c-0.076,1.439-0.162,2.916-0.241,4.371c-3.036-2.962-6.646-5.571-10.372-7.511c0.081-3.344,0.179-6.583,0.316-9.74
	c1.232,0.96,2.471,1.914,3.693,2.859c2.075,1.606,4.361,3.533,6.898,4.505C157.437,116.322,157.339,118.162,157.241,119.999z
	 M157.746,110.521c-3.635-2.298-7.074-4.859-10.603-7.29c0.021-0.304,0.026-0.637,0.049-0.938c0.295-3.895,0.553-7.794,0.795-11.692
	c1.739,0.776,3.893,3.036,4.6,3.719c1.913,1.846,3.612,4.183,5.683,5.933C158.103,103.675,157.929,107.099,157.746,110.521z
	 M158.485,95.51c-2.994-3.071-7.225-6.62-10.339-7.308c0.153-2.599,0.274-5.199,0.394-7.799c1.597,1.237,3.327,2.329,5.019,3.311
	c1.668,0.967,3.41,1.87,5.273,2.13C158.721,89.067,158.63,92.289,158.485,95.51z M148.696,77.004
	c0.163-4.063,0.243-8.129,0.303-12.194c1.309,1.478,2.681,2.895,4.189,4.212c1.743,1.523,3.757,3.404,5.971,4.505
	c-0.05,3.017-0.119,6.033-0.21,9.048C155.307,81.204,151.844,79.278,148.696,77.004z"/>
</svg>
