<?xml version="1.0" encoding="utf-8"?>
<!DOCTYPE svg PUBLIC "-//W3C//DTD SVG 1.1//EN" "http://www.w3.org/Graphics/SVG/1.1/DTD/svg11.dtd">
<svg version="1.1" id="Capa_1" xmlns="http://www.w3.org/2000/svg" xmlns:xlink="http://www.w3.org/1999/xlink" x="0px" y="0px"
	 viewBox="0 0 200 200" enable-background="new 0 0 200 200" xml:space="preserve">
<path fill="#329865" d="M167,45.7c-0.6-11.2-0.9-28-10.8-35.5c-1.2-0.9-2.6-0.8-3.7-0.2c-4.8-5.4-17.5-4.9-24-5.6
	C112.4,2.9,96,2.6,79.8,3.3C74.3,3.5,36.4,4.9,36,17c-0.2,0.2-0.4,0.4-0.5,0.7c-1.9,4.1-0.9,9.1-0.9,13.6
	c0.1,10.2,0.2,20.4,0.2,30.6c0,15.6-0.4,30.9-1.5,46.5c-1.3,17.6-2.6,35.3-2.5,52.9c0,4.7-0.6,15.3,2.4,21.5c-0.1,0.5-0.1,1,0,1.4
	c2.7,10.4,21.6,9.8,29.8,10.3c27.9,1.9,56.7,0.5,84.5-2.2c0.8-0.1,1.4-0.3,1.9-0.7c1,0.4,2.2,0.3,3.3-0.2
	c10.6-4.9,9.8-28.1,10.6-37.5c1.3-14.2,1.9-28.4,2.6-42.7C167.2,89.4,168.2,67.5,167,45.7z M149.1,60.6c0-4.6,0-9.2-0.2-13.7
	c3.1,3.3,6.2,6.8,9,10.4c0.4,0.5,0.8,0.7,1.3,0.7c0,1.7-0.1,3.3,0,4.7c0,2.1,0,4.2,0,6.3c-1.1-0.6-2.2-1.2-3.3-1.9
	C153.3,65.3,151.1,63,149.1,60.6z M150.2,15.8c0.1,0,0.2,0,0.3-0.1c0.2,0.3,0.4,0.6,0.7,0.9c4.5,3.9,6.5,10.7,7.4,18.2
	c-2.4-2.6-5.5-4.8-7.8-7c-4.4-4.3-8.9-8.7-12.7-13.6C142.4,15.1,146.4,15.9,150.2,15.8z M128.6,12.6c2.1,0.2,4.2,0.6,6.4,1
	c3.3,5.1,7.4,9.8,11.4,14.3c3.5,3.9,7.9,10.2,12.9,12.8c0.2,3.9,0.2,7.8,0.2,11.5c-11-15.2-27.1-26-39.3-40.2
	C122.9,12.1,125.7,12.3,128.6,12.6z M116.1,11.7c0,0.1,0,0.1,0.1,0.2c7.9,10.7,17.7,19.7,27.1,29.1c-0.8-0.1-1.6-0.1-2.3,0.1
	c-0.1-0.8-0.5-1.5-1.2-2c-2.4-1.6-5.4-2.5-8.7-2.9c-4.9-5.1-9.9-10.2-14.9-15.2c-0.9-1.3-2-2.5-3.4-3.4c-2.2-2.2-4.4-4.3-6.6-6.4
	C109.5,11.3,112.8,11.5,116.1,11.7z M105.9,33.2c0.9-0.1,1.8-0.2,2.7-0.4c-0.3,0.4-0.4,1,0.1,1.5c0.9,1,2,1.9,3,2.8
	c-2.3,0.3-4.5,0.6-6.4,0.8c-1.5,0.1-2.9,0.2-4.4,0.4c-2.8-2.5-5.7-4.9-8.5-7.4C96.3,33.2,102.1,33.6,105.9,33.2z M93.5,24.1
	c-0.2-2.6,2.3-3.9,5.1-4.5c0.2,0,0.4,0.1,0.6,0.1c4.7-0.5,9.5-0.7,13.1,3c3.6,3.8-3.7,5.3-6.2,5.5C102.7,28.6,93.9,28.8,93.5,24.1z
	 M110.5,32.6c-0.1-0.1-0.2-0.1-0.2-0.1c2.4-0.7,4.7-1.8,6.2-3.8c0.3-0.4,0.4-0.7,0.6-1.1c2.6,2.9,5.2,5.7,7.9,8.4
	c-3.1,0.1-6.3,0.4-9.3,0.8C113.9,35.3,112.1,34,110.5,32.6z M102.5,11.1c1.2,1.3,2.4,2.6,3.6,4c-1.4-0.2-2.9-0.2-4.3,0
	c0-0.3-0.1-0.7-0.4-1c-0.7-0.6-1.4-0.8-2.3-1.2c-0.9-0.4-1.7-1-2.5-1.6c-0.1-0.1-0.1-0.2-0.2-0.2C98.4,11.1,100.4,11.1,102.5,11.1z
	 M92.9,11c0.5,0.8,1,1.6,1.7,2.3c0.7,0.8,1.8,1.7,2.9,2.3c-1.6,0.1-3.2,0.4-4.7,1.2c-1.3,0.6-2.4,1.6-3.1,2.8
	c-0.4-0.2-0.8-0.5-1.2-0.7C87,18,85.5,17,84.2,15.9c-1-0.7-1.9-1.4-2.8-2.2c-0.5-0.4-0.8-0.3-1.2-0.7c-0.9-0.8-2.2,0.4-1.4,1.4
	c0.4,0.4,0.3,0.7,0.7,1.2c0.9,1,1.8,1.9,2.8,2.8c1.5,1.3,3.9,3.8,6.2,4.4c-0.1,0.3-0.2,0.7-0.2,1c-0.1,1.9,0.5,3.5,1.4,4.7
	c-6-5.4-11.6-11.1-16.5-17.6C81.1,10.7,88.5,10.9,92.9,11z M70.6,11c6.2,10.5,14.8,20,24.3,27.8C93,39,91,39.2,89.1,39.3
	C79.5,31,70.5,22.6,63.5,11.8c-0.1-0.2-0.2-0.3-0.3-0.4C65.6,11.2,68.1,11.1,70.6,11z M61.5,11.6c-0.4,0.3-0.5,0.9-0.2,1.5
	c5.2,10.4,13.8,18.8,22.4,26.6c-2.2,0.1-4.4,0.3-6.5,0.4c-1.5-1.1-3.2-2-4.7-3.2c-2.6-2.1-4.8-4.6-7-7.1c-4.8-5.4-9-11.2-13.8-16.5
	C54.7,12.5,58,12,61.5,11.6z M49.4,13.8c0,0.3,0.1,0.5,0.3,0.8c5,6.2,9.6,12.6,14.8,18.6c1.7,2,3.9,4.7,6.4,7
	c-1.8,0-3.6,0.1-5.5,0.1c-1.6-1.9-3.6-3.5-5.2-5.2c-2.9-2.9-5.7-5.8-8.6-8.7c-3-3.1-5.9-6.3-9.3-8.8C43.9,16,46.4,14.8,49.4,13.8z
	 M41.2,18.9c2.1,3.2,4.7,5.9,7.3,8.8c2.7,3.1,5.5,6.1,8.3,9.1c0.9,1,1.9,2.2,2.9,3.3c-0.4,0-0.8,0-1.3,0c-1.4-0.1-2.2,0.9-2.4,2
	c-0.6-2.6-4.1-3.3-5.4-1c-0.3-0.2-0.6-0.4-0.8-0.6c-1.9-1.3-3.5-3.1-5-4.8c-0.9-1-1.7-2-2.6-3c0-4.2,0.3-9.4-1.3-13.2
	C41,19.3,41.1,19.1,41.2,18.9z M42.5,54c0.7,0.7,1.3,1.5,2,2.1c1,0.9,2.2,1.9,3.4,2.5c-0.1,3.4-0.1,6.8,0.1,10.3
	c-0.2-0.1-0.4-0.3-0.6-0.4c-0.9-0.6-1.6-1.4-2.3-2.1c-0.9-0.9-1.7-1.9-2.5-2.9c0-0.6,0-1.2,0-1.8C42.6,59.2,42.5,56.6,42.5,54z
	 M45.7,53.9c-1.2-1-2.2-2.2-3.2-3.4c-0.1-4.3-0.1-8.6-0.2-12.9c1,1.3,2.1,2.5,3.2,3.6c0.8,0.8,2.5,2.3,4.3,3.3
	c-0.8,3.6-1.3,7.3-1.6,11C47.3,55.1,46.5,54.6,45.7,53.9z M42.5,81.2c1.3,1.1,2.7,2.1,4.2,2.1c0.9,0,1.7-1.1,1.1-1.9
	c-1-1.5-3.2-2.3-4.7-3.3c-0.2-0.1-0.3-0.2-0.5-0.4c0-3.1,0-6.3,0-9.5c0.8,0.9,1.6,1.8,2.5,2.6c0.8,0.7,2,1.3,3,1.3
	c0.3,6,0.8,11.9,1.1,17.6c0.2,2.8,0.3,5.7,0.4,8.5c-2-2.7-5.2-6.4-7.5-7.7C42.4,87.4,42.4,84.3,42.5,81.2z M42.3,93.2
	c1.1,1.2,2.1,2.6,3.1,3.9c1.4,1.9,2.6,4.3,4.5,5.6c0.2,4.8,0.4,9.6,0.5,14.4c-1.7-1.2-3.7-2.3-5.2-3.6c-1.5-1.2-2.8-2.5-4.2-3.8
	c0.2-2.7,0.4-5.3,0.6-8c0.2-2.9,0.4-5.8,0.5-8.8C42.2,93.1,42.3,93.1,42.3,93.2z M40.8,113.4c1,1,2,2,3.1,2.9
	c1.8,1.6,4.1,3.8,6.6,4.6c0,3.6,0,7.2,0,10.8c-0.2-0.1-0.4-0.3-0.6-0.4c-1.4-1-2.6-2.2-3.8-3.4c-2.2-2.3-4.1-4.9-5.7-7.7
	C40.4,117.9,40.6,115.7,40.8,113.4z M41.6,183.7c-0.2-3.3-0.5-6.7-1-10c1.2,1.3,2.5,2.4,3,3c3.1,3.2,6.4,6.7,9.8,10
	C48.9,186.2,44.6,185.4,41.6,183.7z M60.1,187c-3.2-3.2-7.1-6.1-10.3-9c-0.7-0.6-7.1-5.8-9.5-8.2c-0.6-4.2-1.1-8.4-1.4-12.7
	c5.3,5.6,10.8,11.2,16.2,16.7c4,4,8.2,8.9,12.8,13.1C65.6,187,62.9,187.1,60.1,187z M75.6,186.9c-5.6-5.5-12.4-10.4-18-15.5
	c-6.3-5.8-12.6-11.8-18.9-17.6c0-0.8-0.1-1.6,0-2.4c0.1-3.7,0.2-7.5,0.4-11.2c5.3,10.6,14.5,19.5,22.9,27.5
	c6.6,6.3,14.5,13.9,22.9,19.2C81.8,186.8,78.7,186.9,75.6,186.9z M93.3,186.7c-19-15.8-40.8-28.1-53.6-50.3
	c-0.1-0.2-0.3-0.4-0.5-0.4c0.2-3.8,0.5-7.6,0.7-11.5c1.2,1.9,2.5,3.7,4,5.3c1.6,1.9,3.9,4.3,6.4,5.3c-0.1,4.5-0.4,9.1-0.8,13.6
	c-0.2,2.7,4,3.1,4.6,0.6c4.1-16,4.3-32.4,3.6-48.8c-0.8-18.8-0.2-38.1-1.5-56.8c0.3,0.6,0.8,1,1.5,1.2c14.1,3.1,28.9,1.7,43.1,0.5
	c11.4-0.9,25,0.7,36.2-1.4c-0.5,1.3-0.1,2.8,1.2,3.6c7.9,5.1,2.1,34.6,1.6,44c-0.9,15.2-5.7,34.7-3.9,50.8c-0.7-0.1-1.4,0.9-0.8,1.7
	c0.4,0.5,0.8,1,1.2,1.5c0.2,1.2,0.4,2.3,0.7,3.4c-5.8-2.6-12.7-1.6-19-1.9c-10.7-0.4-21.3-0.8-32-0.7c-10.4,0.1-20.9,0.1-30.6,2.3
	c-0.2,0-0.3,0.1-0.5,0.2c-0.5,0.2-0.7,0.7-0.7,1.1c0,0.5,0.2,0.9,0.7,1.1c0.1,0.1,0.3,0.1,0.5,0.2c2.1,0.5,4.2,0.8,6.3,1.1
	c5.6,6,13.9,13.8,22.2,15.4c-1.5,3.7-0.7,7.9,3.9,10.6c2.7,1.6,6,2.2,9.2,2c1.6,1.3,3.2,2.7,4.8,4.1c0.7,0.6,1.4,1.3,2.1,2
	C100.4,186.6,96.9,186.7,93.3,186.7z M86.9,163.6c-0.1,0.2-0.2,0.3-0.2,0.5c-0.7,0.7-1.3,1.4-1.7,2.2c-2.9-2.7-6.5-4.4-9.8-6.5
	c-3.3-2-6.4-4.4-9.3-6.9c6.1,0.6,12.3,0.7,18.6,0.8c0.1,0,0.2,0,0.3,0c1.5,0.8,3.1,1.7,4.6,2.6c1.5,0.9,3,1.9,4.4,2.8
	C90.8,159.7,88.3,161.1,86.9,163.6z M95.1,164.1c1.9-0.5,4-0.3,5.9,0.2c2.6,0.7,6.1,2.7,5.1,5.8c-0.7,2.1-3.6,3.8-5.4,4.5
	c-2.6,1-5.5,1-8.2,0.4c-1.9-0.5-4.1-1.7-4.7-3.6c-0.6-1.7,0.1-3.3,1.1-4.7c0.1,0,0.2,0,0.3,0C91.2,165.8,93,164.6,95.1,164.1z
	 M108.7,186.4c-1.4-1.2-3-2.3-4.4-3.4c-1.4-1-2.8-2-4.2-3c2.9-0.7,5.6-2,7.7-3.9c3.1,3.2,6.3,6.2,9.6,9.2c0.2,0.2,0.5,0.5,0.8,0.8
	C115.1,186.2,111.9,186.3,108.7,186.4z M123.5,185.9c-1.4-1-3.1-1.9-4-2.6c-3.5-2.8-7-5.7-10.3-8.7c0.2-0.2,0.4-0.4,0.5-0.6
	c3.7-5.3,0.6-11.1-4.7-13.6c-2.1-1-4.8-1.6-7.6-1.6c-0.1-0.1-0.1-0.2-0.2-0.2c-2-1.7-4.7-2.7-7.1-3.9c-0.5-0.3-1.1-0.5-1.6-0.8
	c5,0.1,9.9,0.2,14.9,0.4c4.8,6.3,10.4,12,16.2,17.4c4.7,4.4,9.5,9.4,14.6,13.6C130.8,185.5,127.2,185.7,123.5,185.9z M140.4,184.8
	c-4.6-5.3-11.2-9.6-16.4-14.1c-6.1-5.2-12.2-10.5-17.6-16.4c0.8,0,1.7,0,2.5,0.1c3,0.1,6.5,0.5,10,0.8c-0.1,0.4-0.1,0.8,0.3,1.1
	c5.1,5.3,9.3,11.4,13.9,17.1c3,3.7,7.3,9.9,12.5,10.9C143.8,184.5,142.1,184.6,140.4,184.8z M148.3,184.1c-0.2,0-0.5,0-0.7,0
	c-0.1,0-0.2,0-0.3,0c0.6-0.6,0.5-2-0.3-2.6c-4.8-3.6-8.9-6.9-12.8-11.5c-4.2-4.9-8-10.1-12.5-14.7c2.6,0.2,5.2,0.3,7.7,0.1
	c0,0.2,0.1,0.3,0.2,0.5c2.8,4.4,5.9,8.5,9.4,12.4c2.7,3.1,6.7,8.6,11,9.3c0.2,0,0.3,0,0.5-0.1C149.8,179.8,149.1,182,148.3,184.1z
	 M151,175.3c-2.4-3-6.4-5.1-9.1-7.9c-3.7-3.8-7-7.9-10-12.2c1.6-0.2,3.2-0.6,4.7-1.2c0.8-0.3,1.5-1.1,1.7-2c0.9,0.7,2.3,0.5,3.2-0.3
	c1,1.1,2.1,2.3,3.1,3.4c2.2,2.4,5.6,7.1,9,7.9C152.8,167.2,152,171.3,151,175.3z M154,159.8c-0.7-0.7-1.6-1.3-2.5-1.9
	c-1.8-1.4-3.5-3-5.2-4.5c-1.3-1.2-2.6-2.5-3.9-3.8c1.5-4.1,2.4-8.6,3-13.3c1.1,1.1,2.3,2.1,3.4,3.2c1.8,1.7,4.2,4.6,6.7,6
	C155.1,150.3,154.7,155.1,154,159.8z M156,141c-2.1-1.7-4.4-3.3-6.4-5c-1.2-1-2.4-2.1-3.7-3.2c0.4-4.3,0.6-8.8,0.7-13.2
	c1.5,1,2.9,2.1,4.3,3.3c2.1,1.8,3.9,3.9,5.9,5.8C156.5,132.8,156.3,136.9,156,141z M157.2,120c-0.1,1.4-0.2,2.9-0.2,4.4
	c-3-3-6.6-5.6-10.4-7.5c0.1-3.3,0.2-6.6,0.3-9.7c1.2,1,2.5,1.9,3.7,2.9c2.1,1.6,4.4,3.5,6.9,4.5C157.4,116.3,157.3,118.2,157.2,120z
	 M157.7,110.5c-3.6-2.3-7.1-4.9-10.6-7.3c0-0.3,0-0.6,0-0.9c0.3-3.9,0.6-7.8,0.8-11.7c1.7,0.8,3.9,3,4.6,3.7
	c1.9,1.8,3.6,4.2,5.7,5.9C158.1,103.7,157.9,107.1,157.7,110.5z M158.5,95.5c-3-3.1-7.2-6.6-10.3-7.3c0.2-2.6,0.3-5.2,0.4-7.8
	c1.6,1.2,3.3,2.3,5,3.3c1.7,1,3.4,1.9,5.3,2.1C158.7,89.1,158.6,92.3,158.5,95.5z M148.7,77c0.2-4.1,0.2-8.1,0.3-12.2
	c1.3,1.5,2.7,2.9,4.2,4.2c1.7,1.5,3.8,3.4,6,4.5c-0.1,3-0.1,6-0.2,9C155.3,81.2,151.8,79.3,148.7,77z"/>
</svg>
