<?xml version="1.0" encoding="UTF-8" standalone="no"?>
<!-- Created with Inkscape (http://www.inkscape.org/) -->

<svg
   xmlns:osb="http://www.openswatchbook.org/uri/2009/osb"
   xmlns:dc="http://purl.org/dc/elements/1.1/"
   xmlns:cc="http://creativecommons.org/ns#"
   xmlns:rdf="http://www.w3.org/1999/02/22-rdf-syntax-ns#"
   xmlns:svg="http://www.w3.org/2000/svg"
   xmlns="http://www.w3.org/2000/svg"
   xmlns:sodipodi="http://sodipodi.sourceforge.net/DTD/sodipodi-0.dtd"
   xmlns:inkscape="http://www.inkscape.org/namespaces/inkscape"
   width="240.61147"
   height="240.61147"
   id="svg2"
   version="1.1"
   inkscape:version="0.48.5 r10040"
   sodipodi:docname="shp_logo_mobile.svg"
   viewBox="0 0 240.61147 240.61147">
  <defs
     id="defs4">
    <linearGradient
       id="linearGradient5298"
       osb:paint="solid">
      <stop
         style="stop-color:#ffff00;stop-opacity:1;"
         offset="0"
         id="stop5300" />
    </linearGradient>
    <linearGradient
       id="linearGradient3826"
       osb:paint="solid">
      <stop
         style="stop-color:#ffff00;stop-opacity:1;"
         offset="0"
         id="stop3828" />
    </linearGradient>
  </defs>
  <sodipodi:namedview
     id="base"
     pagecolor="#ffffff"
     bordercolor="#666666"
     borderopacity="1.0"
     inkscape:pageopacity="0.0"
     inkscape:pageshadow="2"
     inkscape:zoom="3.4537008"
     inkscape:cx="62.541607"
     inkscape:cy="133.90855"
     inkscape:document-units="px"
     inkscape:current-layer="layer2"
     showgrid="false"
     inkscape:window-width="1920"
     inkscape:window-height="1018"
     inkscape:window-x="-8"
     inkscape:window-y="-8"
     inkscape:window-maximized="1"
     fit-margin-top="0"
     fit-margin-left="0"
     fit-margin-right="0"
     fit-margin-bottom="0" />
  <metadata
     id="metadata7">
    <rdf:RDF>
      <cc:Work
         rdf:about="">
        <dc:format>image/svg+xml</dc:format>
        <dc:type
           rdf:resource="http://purl.org/dc/dcmitype/StillImage" />
        <dc:title></dc:title>
      </cc:Work>
    </rdf:RDF>
  </metadata>
  <g
     inkscape:label="Ebene 1"
     inkscape:groupmode="layer"
     id="layer1"
     transform="translate(1.9970703e-7,1.4868165e-6)"
     style="display:inline">
    <path
       sodipodi:type="arc"
       style="fill:#ffffff;fill-opacity:1;fill-rule:nonzero"
       id="path5304"
       sodipodi:cx="175.76654"
       sodipodi:cy="354.34677"
       sodipodi:rx="120.30573"
       sodipodi:ry="120.30573"
       d="m 296.07227,354.34677 a 120.30573,120.30573 0 1 1 -240.611462,0 120.30573,120.30573 0 1 1 240.611462,0 z"
       transform="translate(-55.460808,-234.04104)" />
  </g>
  <g
     inkscape:groupmode="layer"
     id="layer2"
     inkscape:label="Ebene"
     transform="translate(1.9970703e-7,1.4868165e-6)"
     style="display:inline">
    <g
       transform="matrix(1,0,-0.374,1,0,0)"
       style="font-size:144px;font-style:normal;font-weight:normal;line-height:125%;letter-spacing:0px;word-spacing:0px;fill:#329765;fill-opacity:1;stroke:none;font-family:Bauhaus 93;-inkscape-font-specification:Sans"
       id="text3015">
      <path
         d="m 117.8702,89.993225 0,24.625005 c -3.29171,3e-5 -5.55212,0.61461 -6.78125,1.84375 -1.2292,1.2292 -2.01045,3.65628 -2.34375,7.28125 -1.08337,12.04168 -5.75003,20.54167 -13.999999,25.5 -4.375018,2.58333 -10.583345,3.87499 -18.625,3.875 l -3.25,0 0,-24.75 1.0625,0 c 3.749994,2e-5 6.427075,-0.78123 8.03125,-2.34375 1.604155,-1.56248 2.531238,-4.30206 2.78125,-8.21875 0.33332,-6.37496 0.92707,-10.85413 1.78125,-13.4375 0.854151,-2.58329 2.593733,-5.145786 5.21875,-7.687505 4.583309,-4.458274 10.937469,-6.687438 19.062499,-6.6875 z"
         style="font-size:128px;fill:#329765"
         id="path3022" />
      <path
         d="m 148.9327,66.118225 0,26.0625 c 3.9583,-2.874938 7.91663,-4.312436 11.875,-4.3125 5.99995,6.4e-5 10.76036,2.166728 14.28125,6.5 3.52077,4.333386 5.28119,10.187545 5.28125,17.562505 l 0,39.5 -23.375,0 0,-32.9375 c -4e-5,-2.66664 -0.28129,-4.4583 -0.84375,-5.375 -0.56254,-0.91663 -1.65628,-1.37497 -3.28125,-1.375 -2.62503,3e-5 -3.93753,1.93753 -3.9375,5.8125 l 0,33.875 -23.375,0 0,-85.312505 z"
         style="font-size:128px;fill:#329765"
         id="path3024" />
      <path
         d="m 216.0577,174.49323 -23.375,0 0,-52 c 0,-9.54163 2.49999,-17.31246 7.5,-23.312505 2.87499,-3.458278 6.53123,-6.208275 10.96875,-8.25 4.43747,-2.041604 8.98955,-3.062436 13.65625,-3.0625 9.29162,6.4e-5 17.12495,3.125061 23.5,9.375 6.37493,6.250045 9.56243,13.916705 9.5625,23.000005 -7e-5,8.83335 -3.16673,16.45834 -9.5,22.875 -6.33339,6.41666 -13.83338,9.62499 -22.5,9.625 -1.4167,-1e-5 -3.50003,-0.14584 -6.25,-0.4375 l 0,-25.75 c 1.91663,1.54169 3.8333,2.31252 5.75,2.3125 2.41663,2e-5 4.48954,-0.89581 6.21875,-2.6875 1.72912,-1.79164 2.5937,-3.91664 2.59375,-6.375 -5e-5,-2.4583 -0.89588,-4.55205 -2.6875,-6.28125 -1.79171,-1.72913 -3.93754,-2.59371 -6.4375,-2.59375 -6.00003,4e-5 -9.00003,4.14586 -9,12.4375 z"
         style="font-size:128px;fill:#329765"
         id="path3026" />
    </g>
  </g>
</svg>
